# xmcd CD database file generated by Grip 2.95
# 
# Track frame offsets:
#       150
#       13170
#       33735
#       50840
#       61375
#       69310
#       78225
#       88530
#       106832
#       129795
#       153580
#       267437
#       276502
#       296660
# 
# Disc length: 4284 seconds
# 
# Revision: 3
# Processed by: cddbd v1.4b42PL1 Copyright (c) Steve Scherf et al.
# Submitted via: Grip 2.95
# 
DISCID=c910ba0e
DTITLE=Bugs Henderson - Adventures Of The Shuffle Kings [CD2]
DYEAR=1900
DGENRE=
TTITLE0=The PBS Song
TTITLE1=The Hawk
TTITLE2=(She Took The) Night Train
TTITLE3=Sen-Sa-Shun
TTITLE4=Bat Man
TTITLE5=Honest I Do
TTITLE6=Side Tracked
TTITLE7=Vacation
TTITLE8=No Thanks
TTITLE9=Shocked, Stunned, and Bewildered
TTITLE10=Band Talk
TTITLE11=Texas Guitar Players
TTITLE12=Roll Me Over
TTITLE13=Audio Liner Notes
EXTD=
EXTT0=
EXTT1=
EXTT2=
EXTT3=
EXTT4=
EXTT5=
EXTT6=
EXTT7=
EXTT8=
EXTT9=
EXTT10=
EXTT11=
EXTT12=
EXTT13=
PLAYORDER=
